<svg width="129" height="14" viewBox="0 0 129 14" fill="none" xmlns="http://www.w3.org/2000/svg">
<path d="M12.68 0.899999H9.8L6.38 6.498L2.96 0.899999H0.08V13.5H2.96V6.174L6.218 11.52H6.542L9.8 6.174V13.5H12.68V0.899999ZM22.8556 13.5H26.0056L21.7216 0.899999H18.0496L13.7656 13.5H16.9156L17.5456 11.52H22.2256L22.8556 13.5ZM18.4096 8.82L19.8856 4.194L21.3616 8.82H18.4096ZM34.6435 0.899999H25.2835V3.672H28.5235V13.5H31.4035V3.672H34.6435V0.899999ZM42.7442 0.899999V5.724H38.7842V0.899999H35.9042V13.5H38.7842V8.496H42.7442V13.5H45.6242V0.899999H42.7442ZM50.667 10.728V8.496H55.167V5.76H50.667V3.672H55.617V0.899999H47.787V13.5H55.707V10.728H50.667ZM62.102 13.752C64.874 13.752 66.962 12.132 66.962 9.432V0.899999H64.082V9.18C64.082 10.134 63.632 10.944 62.102 10.944C60.572 10.944 60.122 10.134 60.122 9.18V0.899999H57.242V9.432C57.242 12.132 59.33 13.752 62.102 13.752ZM73.449 13.752C76.185 13.752 78.129 12.312 78.129 9.882C78.129 7.218 75.987 6.552 74.079 5.976C72.117 5.382 71.811 4.986 71.811 4.41C71.811 3.906 72.261 3.456 73.161 3.456C74.313 3.456 74.907 4.014 75.339 4.914L77.769 3.492C76.851 1.638 75.231 0.647999 73.161 0.647999C70.983 0.647999 68.931 2.052 68.931 4.482C68.931 6.894 70.767 7.794 72.639 8.316C74.529 8.838 75.249 9.144 75.249 9.918C75.249 10.404 74.907 10.944 73.539 10.944C72.117 10.944 71.343 10.242 70.893 9.198L68.409 10.638C69.111 12.492 70.803 13.752 73.449 13.752ZM84.2504 0.899999H79.4804V13.5H82.3604V9.54H84.2504C86.7344 9.54 88.6604 7.614 88.6604 5.22C88.6604 2.826 86.7344 0.899999 84.2504 0.899999ZM84.2504 6.84H82.3604V3.6H84.2504C85.1324 3.6 85.7804 4.302 85.7804 5.22C85.7804 6.138 85.1324 6.84 84.2504 6.84ZM96.842 13.5H99.992L95.708 0.899999H92.036L87.752 13.5H90.902L91.532 11.52H96.212L96.842 13.5ZM92.396 8.82L93.872 4.194L95.348 8.82H92.396ZM101.066 0.899999V13.5H103.946V0.899999H101.066ZM109.135 13.5H112.807L116.911 0.899999H113.761L110.971 10.17L108.181 0.899999H105.031L109.135 13.5ZM125.283 13.5H128.433L124.149 0.899999H120.477L116.193 13.5H119.343L119.973 11.52H124.653L125.283 13.5ZM120.837 8.82L122.313 4.194L123.789 8.82H120.837Z" fill="#F8F8F2"/>
</svg>
